# This file uses centimeters as units for non-parametric coordinates.

mtllib FinalModelFixed.mtl
g default
v 9.338435 0.071197 -3.624807
v 9.399514 0.146220 -3.647312
v 9.338729 0.071197 -3.812163
v 9.398429 0.109320 -3.780441
v 9.273453 0.084289 -3.639634
v 9.227722 0.047373 -3.787353
v 9.321214 0.133975 -3.652788
v 9.256232 0.147066 -3.667615
v 9.257292 0.147823 -3.660715
v 9.211561 0.110907 -3.808434
v 9.329515 0.130827 -3.847781
v 9.264533 0.143919 -3.862608
v 9.257722 0.141988 -3.796774
v 9.357932 0.145602 -3.779815
v 9.251414 0.158141 -3.619428
v 9.361200 0.158141 -3.619537
v 9.239861 0.125524 -3.766518
v 9.349353 0.125524 -3.766518
v 9.306191 0.159489 -3.832510
v 9.241209 0.172580 -3.847336
v 9.247201 0.157988 -3.704728
v 9.182220 0.171079 -3.719555
v 9.268429 0.144881 -3.681808
v 9.268724 0.144881 -3.869163
v 9.338284 0.070227 -3.631702
v 9.396509 0.143949 -3.650115
v 9.391961 0.109516 -3.777127
v 9.338087 0.072023 -3.805861
v 9.231169 0.049949 -3.785560
v 9.277349 0.083412 -3.644145
v 9.257211 0.144359 -3.674290
v 9.322193 0.131267 -3.659463
v 9.216604 0.108141 -3.809473
v 9.262335 0.145057 -3.661753
v 9.328497 0.130660 -3.842177
v 9.263515 0.143752 -3.857003
v 9.355797 0.140102 -3.781308
v 9.257269 0.137868 -3.795687
v 9.250136 0.158907 -3.626543
v 9.359922 0.158907 -3.626652
v 9.349815 0.119830 -3.771015
v 9.240323 0.119830 -3.771015
v 9.304492 0.153660 -3.830210
v 9.239510 0.166752 -3.845037
v 9.245920 0.150864 -3.705403
v 9.180938 0.163955 -3.720230
v 9.271995 0.138395 -3.868892
v 9.271701 0.138395 -3.681537
vt 0.864846 0.121605
vt 0.967923 0.121280
vt 0.968127 0.244059
vt 0.865391 0.193478
vt 0.444781 0.017262
vt 0.438466 0.114088
vt 0.421876 0.105799
vt 0.421876 0.000005
vt 0.956705 0.462947
vt 0.941000 0.534525
vt 0.870119 0.469548
vt 0.885824 0.397971
vt 0.865349 0.897874
vt 0.759377 0.874136
vt 0.768173 0.827295
vt 0.830207 0.813684
vt 0.933401 0.061598
vt 0.967024 0.008208
vt 0.999024 0.038420
vt 0.995837 0.118202
vt 0.302015 0.010441
vt 0.250626 0.075923
vt 0.184571 0.000036
vt 0.266114 0.000036
vt 0.531332 0.012586
vt 0.588745 0.000024
vt 0.574211 0.027525
vt 0.516798 0.040087
vt 0.406056 0.385221
vt 0.417700 0.332002
vt 0.473536 0.311322
vt 0.461892 0.364541
vt 0.899264 0.696337
vt 0.859573 0.605687
vt 0.927883 0.583938
vt 0.967574 0.674588
vt 0.927443 0.232048
vt 0.854299 0.286537
vt 0.878902 0.202518
vt 0.827932 0.000016
vt 0.934524 0.051056
vt 0.898279 0.121522
vt 0.832114 0.014126
vt 0.838479 0.306647
vt 0.934654 0.264015
vt 0.949582 0.354217
vt 0.901199 0.407811
vt 0.838479 0.306647
vt 0.934654 0.264015
vt 0.949582 0.354217
vt 0.901199 0.407811
vt 0.864846 0.121605
vt 0.967923 0.121280
vt 0.968127 0.244059
vt 0.865391 0.193478
vt 0.406056 0.385221
vt 0.417700 0.332002
vt 0.473536 0.311322
vt 0.461892 0.364541
vt 0.899264 0.696337
vt 0.859573 0.605687
vt 0.927883 0.583938
vt 0.967574 0.674588
vt 0.865349 0.897874
vt 0.759377 0.874136
vt 0.768173 0.827295
vt 0.830207 0.813684
vt 0.933401 0.061598
vt 0.967024 0.008208
vt 0.999024 0.038420
vt 0.995837 0.118202
vt 0.927443 0.232048
vt 0.854299 0.286537
vt 0.878902 0.202518
vt 0.302015 0.010441
vt 0.250626 0.075923
vt 0.184571 0.000036
vt 0.266114 0.000036
vt 0.444781 0.017262
vt 0.438466 0.114088
vt 0.421876 0.105799
vt 0.421876 0.000005
vt 0.531332 0.012586
vt 0.588745 0.000024
vt 0.574211 0.027525
vt 0.516798 0.040087
vt 0.956705 0.462947
vt 0.941000 0.534525
vt 0.870119 0.469548
vt 0.885824 0.397971
vt 0.827932 0.000016
vt 0.934524 0.051056
vt 0.898279 0.121522
vt 0.832114 0.014126
vt 0.417700 0.332002
vt 0.473536 0.311322
vt 0.461892 0.364541
vt 0.406056 0.385221
vt 0.859573 0.605687
vt 0.927883 0.583938
vt 0.967574 0.674588
vt 0.899264 0.696337
vt 0.759377 0.874136
vt 0.768173 0.827295
vt 0.830207 0.813684
vt 0.865349 0.897874
vt 0.995837 0.118202
vt 0.933401 0.061598
vt 0.854299 0.286537
vt 0.878902 0.202518
vt 0.250626 0.075923
vt 0.184571 0.000036
vt 0.266114 0.000036
vt 0.302015 0.010441
vt 0.438466 0.114088
vt 0.421876 0.105799
vt 0.421876 0.000005
vt 0.444781 0.017262
vt 0.588745 0.000024
vt 0.574211 0.027525
vt 0.516798 0.040087
vt 0.531332 0.012586
vt 0.941000 0.534525
vt 0.870119 0.469548
vt 0.885824 0.397971
vt 0.956705 0.462947
vt 0.934524 0.051056
vt 0.898279 0.121522
vt 0.832114 0.014126
vt 0.827932 0.000016
vn -0.699692 0.711384 -0.066064
vn -0.699692 0.711384 -0.066064
vn -0.699692 0.711384 -0.066064
vn -0.699692 0.711384 -0.066064
vn 0.056925 -0.994186 0.091399
vn 0.056925 -0.994186 0.091399
vn 0.056925 -0.994186 0.091399
vn 0.056925 -0.994186 0.091399
vn 0.114022 -0.398196 -0.910186
vn 0.114022 -0.398196 -0.910186
vn 0.114022 -0.398196 -0.910186
vn 0.114022 -0.398196 -0.910186
vn 0.937659 0.118206 -0.326839
vn 0.937659 0.118206 -0.326839
vn 0.937659 0.118206 -0.326839
vn 0.937659 0.118206 -0.326839
vn -0.004191 0.577646 0.816277
vn -0.004191 0.577646 0.816276
vn -0.004191 0.577646 0.816276
vn -0.004191 0.577646 0.816277
vn -0.190111 -0.288940 0.938281
vn -0.190111 -0.288939 0.938281
vn -0.190111 -0.288940 0.938281
vn -0.190111 -0.288940 0.938281
vn -0.644521 -0.731809 0.221468
vn -0.644521 -0.731809 0.221468
vn -0.644521 -0.731809 0.221468
vn -0.149096 0.092442 -0.984492
vn -0.149096 0.092442 -0.984492
vn -0.149096 0.092442 -0.984492
vn -0.149096 0.092442 -0.984492
vn 0.057203 -0.691501 -0.720107
vn 0.057203 -0.691501 -0.720107
vn 0.057203 -0.691501 -0.720107
vn 0.057203 -0.691501 -0.720107
vn -0.290955 -0.662694 0.690059
vn -0.290955 -0.662694 0.690059
vn -0.290955 -0.662694 0.690059
vn -0.290955 -0.662694 0.690059
vn -0.173697 -0.979350 -0.103458
vn -0.173697 -0.979350 -0.103458
vn -0.173697 -0.979350 -0.103458
vn -0.173697 -0.979350 -0.103458
vn 0.393082 -0.918257 0.047864
vn 0.393082 -0.918257 0.047864
vn 0.393082 -0.918257 0.047864
vn 0.393082 -0.918257 0.047864
vn 0.677984 -0.730441 0.082427
vn 0.677984 -0.730441 0.082427
vn 0.677984 -0.730441 0.082427
vn 0.677984 -0.730441 0.082427
vn 0.066241 -0.992741 0.100391
vn 0.066241 -0.992741 0.100391
vn 0.066241 -0.992741 0.100391
vn 0.066241 -0.992741 0.100391
vn -0.134494 0.372405 0.918273
vn -0.134494 0.372405 0.918273
vn -0.134494 0.372405 0.918273
vn -0.134494 0.372405 0.918273
vn -0.937268 -0.131247 0.322958
vn -0.937268 -0.131247 0.322958
vn -0.937268 -0.131247 0.322958
vn -0.937268 -0.131247 0.322958
vn -0.011078 -0.577540 -0.816287
vn -0.011078 -0.577540 -0.816287
vn -0.011078 -0.577540 -0.816287
vn -0.011078 -0.577540 -0.816287
vn 0.187865 0.350428 -0.917555
vn 0.187865 0.350428 -0.917555
vn 0.187865 0.350428 -0.917555
vn 0.187865 0.350427 -0.917555
vn 0.650956 0.730153 -0.207684
vn 0.650956 0.730153 -0.207684
vn 0.650956 0.730153 -0.207684
vn 0.175804 -0.105360 0.978771
vn 0.175804 -0.105360 0.978771
vn 0.175804 -0.105360 0.978771
vn 0.175804 -0.105360 0.978771
vn -0.063523 0.783162 0.618564
vn -0.063523 0.783162 0.618564
vn -0.063523 0.783162 0.618564
vn -0.063523 0.783162 0.618564
vn 0.291167 0.623533 -0.725554
vn 0.291167 0.623533 -0.725554
vn 0.291167 0.623533 -0.725554
vn 0.291167 0.623533 -0.725554
vn 0.176236 0.979957 0.092868
vn 0.176236 0.979957 0.092868
vn 0.176236 0.979957 0.092868
vn 0.176236 0.979957 0.092868
vn -0.450043 0.892228 -0.037274
vn -0.450043 0.892229 -0.037274
vn -0.450043 0.892228 -0.037274
vn -0.450043 0.892229 -0.037274
vn -0.883603 -0.389148 -0.260403
vn -0.883603 -0.389148 -0.260403
vn -0.883603 -0.389148 -0.260403
vn -0.883603 -0.389148 -0.260403
vn 0.258265 0.907851 -0.330311
vn 0.258265 0.907851 -0.330311
vn 0.258265 0.907851 -0.330311
vn 0.258265 0.907851 -0.330311
vn 0.966754 0.255503 -0.010212
vn 0.966754 0.255502 -0.010212
vn 0.966754 0.255502 -0.010212
vn 0.966754 0.255502 -0.010212
vn 0.076302 -0.328692 -0.941350
vn 0.076302 -0.328692 -0.941350
vn 0.076302 -0.328692 -0.941350
vn 0.076302 -0.328692 -0.941350
vn 0.594132 0.368887 0.714793
vn 0.594132 0.368887 0.714793
vn 0.594132 0.368887 0.714793
vn 0.594132 0.368887 0.714793
vn 0.965998 0.227880 0.122142
vn 0.918449 0.288958 0.270103
vn 0.915158 0.292021 0.277865
vn 0.965998 0.227880 0.122142
vn -0.887048 0.437014 0.148877
vn -0.887048 0.437014 0.148877
vn -0.887048 0.437014 0.148877
vn -0.887048 0.437014 0.148877
vn -0.628768 -0.671248 -0.392526
vn -0.628768 -0.671248 -0.392526
vn -0.628768 -0.671248 -0.392526
vn -0.628768 -0.671248 -0.392526
vn -0.865231 0.426985 0.262792
vn -0.865231 0.426985 0.262792
vn -0.865231 0.426985 0.262792
vn -0.865231 0.426985 0.262792
vn -0.703171 -0.706275 0.082011
vn -0.703171 -0.706275 0.082011
vn -0.703171 -0.706275 0.082011
vn -0.703171 -0.706275 0.082011
vn 0.000106 0.994258 0.107005
vn 0.052810 0.998488 0.015228
vn 0.040471 0.998502 0.036823
vn 0.000106 0.994258 0.107005
vn 0.188177 0.955713 -0.226279
vn 0.188177 0.955713 -0.226279
vn 0.954161 -0.239016 0.180133
vn 0.954161 -0.239016 0.180133
vn 0.954161 -0.239016 0.180133
vn 0.954161 -0.239016 0.180133
vn 0.000000 -0.619800 0.784760
vn 0.000000 -0.619800 0.784760
vn 0.000000 -0.619800 0.784760
vn 0.000000 -0.619800 0.784760
vn -0.875897 0.157623 -0.456025
vn -0.875897 0.157623 -0.456025
vn -0.875897 0.157623 -0.456025
vn -0.875897 0.157623 -0.456025
vn 0.740003 0.388450 0.549092
vn 0.740003 0.388450 0.549092
vn -0.740009 -0.388460 -0.549077
vn -0.740009 -0.388460 -0.549077
vn -0.740009 -0.388460 -0.549077
vn -0.740009 -0.388460 -0.549078
vn 0.896752 -0.154339 0.414748
vn 0.896752 -0.154339 0.414748
vn 0.896752 -0.154339 0.414748
vn 0.896752 -0.154339 0.414748
vn -0.231797 -0.050353 0.971460
vn -0.231797 -0.050353 0.971460
vn -0.231797 -0.050353 0.971460
vn -0.231797 -0.050353 0.971460
vn -0.896752 0.154340 -0.414748
vn -0.896752 0.154340 -0.414748
vn -0.896752 0.154340 -0.414748
vn -0.896752 0.154340 -0.414748
vn -0.537689 -0.422576 -0.729602
vn -0.537689 -0.422576 -0.729602
vn -0.537689 -0.422576 -0.729602
vn -0.537689 -0.422576 -0.729602
vn 0.892864 0.450324 0.001403
vn 0.880735 0.472985 0.024326
vn 0.887026 0.461544 0.012686
vn 0.892864 0.450324 0.001403
vn 0.734893 0.642290 0.217709
vn 0.734893 0.642290 0.217709
s off
g pPlane7
usemtl lambert34SG
f 25/44/1 26/45/2 27/46/3 28/47/4
f 25/1/5 30/4/6 29/3/7 28/2/8
f 25/98/9 30/95/10 31/96/11 32/97/12
f 30/102/13 29/99/14 33/100/15 34/101/16
f 29/106/17 28/103/18 35/104/19 36/105/20
f 28/108/21 27/18/22 37/19/23 38/107/24
f 27/37/25 26/109/26 37/110/27
f 26/114/28 25/111/29 39/112/30 40/113/31
f 38/118/32 37/115/33 41/116/34 42/117/35
f 36/122/36 35/119/37 43/120/38 44/121/39
f 44/126/40 43/123/41 45/124/42 46/125/43
f 34/130/44 33/127/45 47/128/46 48/129/47
f 1/48/48 3/51/49 4/50/50 2/49/51
f 1/52/52 5/55/53 6/54/54 3/53/55
f 1/56/56 7/59/57 8/58/58 5/57/59
f 5/60/60 9/63/61 10/62/62 6/61/63
f 6/64/64 12/67/65 11/66/66 3/65/67
f 3/68/68 13/71/69 14/70/70 4/69/71
f 4/72/72 14/74/73 2/73/74
f 2/75/75 16/78/76 15/77/77 1/76/78
f 13/79/79 17/82/80 18/81/81 14/80/82
f 12/83/83 20/86/84 19/85/85 11/84/86
f 20/87/87 22/90/88 21/89/89 19/88/90
f 9/91/91 23/94/92 24/93/93 10/92/94
f 5/30/95 8/31/96 31/96/97 30/95/98
f 8/31/99 7/32/100 32/97/101 31/96/102
f 7/32/103 1/29/104 25/98/105 32/97/106
f 6/34/107 10/35/108 33/100/109 29/99/110
f 9/36/111 5/33/112 30/102/113 34/101/114
s 1
f 3/14/115 11/15/116 35/104/117 28/103/118
s off
f 12/16/119 6/13/120 29/106/121 36/105/122
f 13/20/123 3/17/124 28/108/125 38/107/126
f 2/38/127 14/39/128 37/110/129 26/109/130
f 1/22/131 15/23/132 39/112/133 25/111/134
s 2
f 15/23/135 16/24/136 40/113/137 39/112/138
f 16/24/136 2/21/139 26/114/140 40/113/137
s off
f 14/6/141 18/7/142 41/116/143 37/115/144
f 18/7/145 17/8/146 42/117/147 41/116/148
f 17/8/149 13/5/150 38/118/151 42/117/152
s 1
f 11/26/116 19/27/153 43/120/154 35/119/117
s off
f 20/28/155 12/25/156 36/122/157 44/121/158
f 19/10/159 21/11/160 45/124/161 43/123/162
f 21/11/163 22/12/164 46/125/165 45/124/166
f 22/12/167 20/9/168 44/126/169 46/125/170
f 10/41/171 24/42/172 47/128/173 33/127/174
s 3
f 24/42/175 23/43/176 48/129/177 47/128/178
f 23/43/176 9/40/179 34/130/180 48/129/177
g default
v 10.067720 0.183709 -3.086262
v 10.175002 0.315482 -3.125792
v 10.068238 0.183709 -3.415344
v 10.173095 0.250670 -3.359627
v 9.953583 0.206704 -3.112304
v 9.873259 0.141862 -3.371768
v 10.037472 0.293974 -3.135410
v 9.923335 0.316969 -3.161452
v 9.925196 0.318299 -3.149332
v 9.844871 0.253457 -3.408796
v 10.052052 0.288447 -3.477906
v 9.937915 0.311441 -3.503948
v 9.925950 0.308050 -3.388314
v 10.101966 0.314398 -3.358526
v 9.914869 0.336421 -3.076814
v 10.107705 0.336421 -3.077005
v 9.894579 0.279131 -3.335171
v 10.086897 0.279131 -3.335171
v 10.011084 0.338789 -3.451083
v 9.896946 0.361783 -3.477125
v 9.907472 0.336153 -3.226640
v 9.793334 0.359147 -3.252682
v 9.944759 0.313132 -3.186381
v 9.945275 0.313132 -3.515463
v 10.067533 0.182510 -3.094784
v 10.171288 0.312676 -3.129255
v 10.165104 0.250912 -3.355531
v 10.067443 0.184729 -3.407556
v 9.877519 0.145046 -3.369552
v 9.958397 0.205620 -3.117880
v 9.924543 0.313623 -3.169702
v 10.038679 0.290629 -3.143660
v 9.851104 0.250039 -3.410079
v 9.931428 0.314881 -3.150616
v 10.050795 0.288240 -3.470980
v 9.936657 0.311234 -3.497022
v 10.099327 0.307600 -3.360371
v 9.925391 0.302958 -3.386971
v 9.913290 0.337368 -3.085607
v 10.106125 0.337368 -3.085798
v 10.087467 0.272095 -3.340728
v 9.895150 0.272095 -3.340728
v 10.008985 0.331586 -3.448241
v 9.894847 0.354580 -3.474283
v 9.905888 0.327349 -3.227475
v 9.791751 0.350343 -3.253517
v 9.949319 0.305116 -3.515128
v 9.948802 0.305116 -3.186046
vt 0.387074 0.717897
vt 0.206024 0.718469
vt 0.205665 0.502813
vt 0.386117 0.591655
vt 1.000000 0.461327
vt 0.988908 0.631398
vt 0.959768 0.616838
vt 0.959768 0.431015
vt 0.590626 0.306084
vt 0.618211 0.180361
vt 0.742711 0.294490
vt 0.715126 0.420213
vt 0.507815 0.853533
vt 0.321681 0.811838
vt 0.337131 0.729564
vt 0.446091 0.705657
vt 0.305109 0.808587
vt 0.246051 0.902365
vt 0.189844 0.849298
vt 0.195443 0.709165
vt 0.606447 0.797137
vt 0.696709 0.682120
vt 0.812732 0.815413
vt 0.669505 0.815413
vt 0.048305 0.720144
vt 0.070368 0.820987
vt 0.022064 0.795460
vt 0.000000 0.694617
vt 0.643361 0.810789
vt 0.736838 0.831241
vt 0.773162 0.929315
vt 0.679685 0.908863
vt 0.644522 0.197444
vt 0.574806 0.038220
vt 0.694790 0.000019
vt 0.764506 0.159242
vt 0.797078 0.128497
vt 0.701369 0.000024
vt 0.848946 0.043238
vt 0.500978 0.387898
vt 0.688202 0.477548
vt 0.624540 0.601319
vt 0.508323 0.412681
vt 0.378082 0.010469
vt 0.452962 0.179397
vt 0.294526 0.205618
vt 0.200391 0.120635
vt 0.378082 0.010469
vt 0.452962 0.179397
vt 0.294526 0.205618
vt 0.200391 0.120635
vt 0.387074 0.717897
vt 0.206024 0.718469
vt 0.205665 0.502813
vt 0.386117 0.591655
vt 0.643361 0.810789
vt 0.736838 0.831241
vt 0.773162 0.929315
vt 0.679685 0.908863
vt 0.644522 0.197444
vt 0.574806 0.038220
vt 0.694790 0.000019
vt 0.764506 0.159242
vt 0.507815 0.853533
vt 0.321681 0.811838
vt 0.337131 0.729564
vt 0.446091 0.705657
vt 0.305109 0.808587
vt 0.246051 0.902365
vt 0.189844 0.849298
vt 0.195443 0.709165
vt 0.797078 0.128497
vt 0.701369 0.000024
vt 0.848946 0.043238
vt 0.606447 0.797137
vt 0.696709 0.682120
vt 0.812732 0.815413
vt 0.669505 0.815413
vt 1.000000 0.461327
vt 0.988908 0.631398
vt 0.959768 0.616838
vt 0.959768 0.431015
vt 0.048305 0.720144
vt 0.070368 0.820987
vt 0.022064 0.795460
vt 0.000000 0.694617
vt 0.590626 0.306084
vt 0.618211 0.180361
vt 0.742711 0.294490
vt 0.715126 0.420213
vt 0.500978 0.387898
vt 0.688202 0.477548
vt 0.624540 0.601319
vt 0.508323 0.412681
vt 0.736838 0.831241
vt 0.773162 0.929315
vt 0.679685 0.908863
vt 0.643361 0.810789
vt 0.574806 0.038220
vt 0.694790 0.000019
vt 0.764506 0.159242
vt 0.644522 0.197444
vt 0.321681 0.811838
vt 0.337131 0.729564
vt 0.446091 0.705657
vt 0.507815 0.853533
vt 0.195443 0.709165
vt 0.305109 0.808587
vt 0.701369 0.000024
vt 0.848946 0.043238
vt 0.696709 0.682120
vt 0.812732 0.815413
vt 0.669505 0.815413
vt 0.606447 0.797137
vt 0.988908 0.631398
vt 0.959768 0.616838
vt 0.959768 0.431015
vt 1.000000 0.461327
vt 0.070368 0.820987
vt 0.022064 0.795460
vt 0.000000 0.694617
vt 0.048305 0.720144
vt 0.618211 0.180361
vt 0.742711 0.294490
vt 0.715126 0.420213
vt 0.590626 0.306084
vt 0.688202 0.477548
vt 0.624540 0.601319
vt 0.508323 0.412681
vt 0.500978 0.387898
vn -0.693086 0.717333 -0.071170
vn -0.693086 0.717333 -0.071170
vn -0.693085 0.717333 -0.071170
vn -0.693086 0.717333 -0.071170
vn -0.059764 0.993761 -0.094167
vn -0.059764 0.993761 -0.094167
vn -0.059764 0.993761 -0.094167
vn -0.059764 0.993761 -0.094167
vn 0.120267 -0.390391 -0.912760
vn 0.120267 -0.390391 -0.912760
vn 0.120267 -0.390392 -0.912760
vn 0.120267 -0.390391 -0.912760
vn 0.937546 0.122238 -0.325678
vn 0.937546 0.122238 -0.325678
vn 0.937546 0.122238 -0.325678
vn 0.937546 0.122238 -0.325678
vn 0.000404 0.577687 0.816258
vn 0.000404 0.577687 0.816258
vn 0.000404 0.577687 0.816258
vn 0.000404 0.577687 0.816258
vn -0.189303 -0.308820 0.932092
vn -0.189303 -0.308820 0.932092
vn -0.189303 -0.308820 0.932092
vn -0.189303 -0.308820 0.932092
vn -0.646358 -0.731433 0.217317
vn -0.646358 -0.731433 0.217317
vn -0.646358 -0.731433 0.217317
vn -0.157081 0.096176 -0.982891
vn -0.157081 0.096176 -0.982892
vn -0.157081 0.096176 -0.982892
vn -0.157081 0.096176 -0.982892
vn 0.059220 -0.721954 -0.689402
vn 0.059220 -0.721954 -0.689402
vn 0.059220 -0.721954 -0.689402
vn 0.059220 -0.721954 -0.689402
vn -0.291120 -0.649360 0.702553
vn -0.291120 -0.649360 0.702553
vn -0.291120 -0.649360 0.702553
vn -0.291120 -0.649360 0.702553
vn -0.174463 -0.979545 -0.100272
vn -0.174463 -0.979545 -0.100272
vn -0.174463 -0.979545 -0.100272
vn -0.174463 -0.979545 -0.100272
vn 0.411093 -0.910503 0.044568
vn 0.411093 -0.910503 0.044568
vn 0.411093 -0.910503 0.044568
vn 0.411094 -0.910503 0.044568
vn 0.677987 -0.730438 0.082428
vn 0.677987 -0.730438 0.082428
vn 0.677987 -0.730438 0.082428
vn 0.677987 -0.730438 0.082428
vn 0.066241 -0.992741 0.100391
vn 0.066241 -0.992741 0.100391
vn 0.066241 -0.992741 0.100391
vn 0.066241 -0.992741 0.100391
vn -0.134491 0.372405 0.918274
vn -0.134491 0.372405 0.918274
vn -0.134491 0.372405 0.918274
vn -0.134491 0.372404 0.918274
vn -0.937266 -0.131259 0.322960
vn -0.937266 -0.131259 0.322960
vn -0.937266 -0.131259 0.322960
vn -0.937266 -0.131259 0.322960
vn -0.011080 -0.577538 -0.816288
vn -0.011080 -0.577538 -0.816288
vn -0.011080 -0.577538 -0.816288
vn -0.011080 -0.577538 -0.816288
vn 0.187865 0.350435 -0.917552
vn 0.187865 0.350435 -0.917552
vn 0.187865 0.350435 -0.917552
vn 0.187865 0.350435 -0.917552
vn 0.650959 0.730150 -0.207686
vn 0.650959 0.730150 -0.207686
vn 0.650959 0.730150 -0.207686
vn 0.175802 -0.105363 0.978771
vn 0.175802 -0.105363 0.978771
vn 0.175802 -0.105363 0.978771
vn 0.175802 -0.105363 0.978771
vn -0.063523 0.783161 0.618566
vn -0.063523 0.783161 0.618566
vn -0.063523 0.783161 0.618566
vn -0.063523 0.783161 0.618566
vn 0.291166 0.623533 -0.725554
vn 0.291166 0.623533 -0.725554
vn 0.291166 0.623533 -0.725554
vn 0.291166 0.623533 -0.725554
vn 0.176236 0.979957 0.092867
vn 0.176236 0.979957 0.092867
vn 0.176236 0.979957 0.092867
vn 0.176236 0.979957 0.092867
vn -0.450039 0.892231 -0.037273
vn -0.450039 0.892231 -0.037273
vn -0.450039 0.892231 -0.037273
vn -0.450039 0.892231 -0.037273
vn -0.885810 -0.382018 -0.263444
vn -0.885810 -0.382018 -0.263444
vn -0.885810 -0.382018 -0.263444
vn -0.885810 -0.382018 -0.263444
vn 0.258272 0.907832 -0.330358
vn 0.258272 0.907832 -0.330358
vn 0.258272 0.907832 -0.330358
vn 0.258272 0.907832 -0.330358
vn 0.966424 0.256729 -0.010729
vn 0.966424 0.256729 -0.010729
vn 0.966424 0.256729 -0.010729
vn 0.966424 0.256729 -0.010729
vn 0.076833 -0.318831 -0.944692
vn 0.076833 -0.318831 -0.944692
vn 0.076833 -0.318831 -0.944692
vn 0.076833 -0.318831 -0.944692
vn 0.594427 0.373881 0.711947
vn 0.594427 0.373881 0.711947
vn 0.594427 0.373881 0.711947
vn 0.594427 0.373881 0.711947
vn 0.966351 0.226320 0.122250
vn 0.920245 0.283847 0.269408
vn 0.917048 0.286732 0.277141
vn 0.966351 0.226320 0.122250
vn -0.885565 0.440502 0.147420
vn -0.885565 0.440502 0.147420
vn -0.885565 0.440502 0.147420
vn -0.885565 0.440502 0.147420
vn -0.634317 -0.666737 -0.391284
vn -0.634317 -0.666737 -0.391284
vn -0.634317 -0.666737 -0.391284
vn -0.634317 -0.666737 -0.391284
vn -0.865165 0.425880 0.264793
vn -0.865165 0.425880 0.264793
vn -0.865165 0.425880 0.264793
vn -0.865165 0.425880 0.264793
vn -0.702788 -0.706661 0.081974
vn -0.702788 -0.706661 0.081974
vn -0.702788 -0.706661 0.081974
vn -0.702788 -0.706661 0.081974
vn 0.000106 0.994259 0.107005
vn 0.049648 0.998638 0.016034
vn 0.038396 0.998585 0.036797
vn 0.000106 0.994259 0.107005
vn 0.176083 0.959108 -0.221600
vn 0.176083 0.959108 -0.221600
vn 0.950331 -0.244907 0.192069
vn 0.950331 -0.244907 0.192069
vn 0.950331 -0.244907 0.192069
vn 0.950331 -0.244907 0.192069
vn 0.000000 -0.619816 0.784747
vn 0.000000 -0.619816 0.784747
vn 0.000000 -0.619816 0.784747
vn 0.000000 -0.619816 0.784747
vn -0.878786 0.155825 -0.451058
vn -0.878786 0.155825 -0.451058
vn -0.878786 0.155825 -0.451058
vn -0.878786 0.155825 -0.451058
vn 0.750739 0.375983 0.543164
vn 0.750739 0.375983 0.543164
vn -0.750728 -0.375957 -0.543197
vn -0.750728 -0.375957 -0.543197
vn -0.750728 -0.375957 -0.543197
vn -0.750728 -0.375957 -0.543197
vn 0.897035 -0.154420 0.414105
vn 0.897035 -0.154420 0.414105
vn 0.897035 -0.154420 0.414105
vn 0.897035 -0.154420 0.414105
vn -0.231807 -0.050412 0.971455
vn -0.231807 -0.050412 0.971455
vn -0.231807 -0.050412 0.971455
vn -0.231807 -0.050412 0.971455
vn -0.897030 0.154463 -0.414100
vn -0.897030 0.154463 -0.414100
vn -0.897030 0.154463 -0.414100
vn -0.897030 0.154463 -0.414100
vn -0.536253 -0.421274 -0.731410
vn -0.536252 -0.421274 -0.731410
vn -0.536253 -0.421274 -0.731410
vn -0.536252 -0.421274 -0.731410
vn 0.892810 0.450430 0.001402
vn 0.880577 0.473119 0.027237
vn 0.886565 0.462364 0.014906
vn 0.892810 0.450430 0.001402
vn 0.731642 0.637464 0.241535
vn 0.731642 0.637464 0.241535
s off
g pPlane5
usemtl lambert34SG
f 73/174/181 74/175/182 75/176/183 76/177/184
f 73/131/185 76/132/186 77/133/187 78/134/188
f 73/228/189 78/225/190 79/226/191 80/227/192
f 78/232/193 77/229/194 81/230/195 82/231/196
f 77/236/197 76/233/198 83/234/199 84/235/200
f 76/238/201 75/148/202 85/149/203 86/237/204
f 75/167/205 74/239/206 85/240/207
f 74/244/208 73/241/209 87/242/210 88/243/211
f 86/248/212 85/245/213 89/246/214 90/247/215
f 84/252/216 83/249/217 91/250/218 92/251/219
f 92/256/220 91/253/221 93/254/222 94/255/223
f 82/260/224 81/257/225 95/258/226 96/259/227
f 49/178/228 51/181/229 52/180/230 50/179/231
f 49/182/232 53/185/233 54/184/234 51/183/235
f 49/186/236 55/189/237 56/188/238 53/187/239
f 53/190/240 57/193/241 58/192/242 54/191/243
f 54/194/244 60/197/245 59/196/246 51/195/247
f 51/198/248 61/201/249 62/200/250 52/199/251
f 52/202/252 62/204/253 50/203/254
f 50/205/255 64/208/256 63/207/257 49/206/258
f 61/209/259 65/212/260 66/211/261 62/210/262
f 60/213/263 68/216/264 67/215/265 59/214/266
f 68/217/267 70/220/268 69/219/269 67/218/270
f 57/221/271 71/224/272 72/223/273 58/222/274
f 53/160/275 56/161/276 79/226/277 78/225/278
f 56/161/279 55/162/280 80/227/281 79/226/282
f 55/162/283 49/159/284 73/228/285 80/227/286
f 54/164/287 58/165/288 81/230/289 77/229/290
f 57/166/291 53/163/292 78/232/293 82/231/294
s 1
f 51/144/295 59/145/296 83/234/297 76/233/298
s off
f 60/146/299 54/143/300 77/236/301 84/235/302
f 61/150/303 51/147/304 76/238/305 86/237/306
f 50/168/307 62/169/308 85/240/309 74/239/310
f 49/152/311 63/153/312 87/242/313 73/241/314
s 2
f 63/153/315 64/154/316 88/243/317 87/242/318
f 64/154/316 50/151/319 74/244/320 88/243/317
s off
f 62/136/321 66/137/322 89/246/323 85/245/324
f 66/137/325 65/138/326 90/247/327 89/246/328
f 65/138/329 61/135/330 86/248/331 90/247/332
s 1
f 59/156/296 67/157/333 91/250/334 83/249/297
s off
f 68/158/335 60/155/336 84/252/337 92/251/338
f 67/140/339 69/141/340 93/254/341 91/253/342
f 69/141/343 70/142/344 94/255/345 93/254/346
f 70/142/347 68/139/348 92/256/349 94/255/350
f 58/171/351 72/172/352 95/258/353 81/257/354
s 3
f 72/172/355 71/173/356 96/259/357 95/258/358
f 71/173/356 57/170/359 82/260/360 96/259/357
