# This file uses centimeters as units for non-parametric coordinates.

mtllib hammerObj.mtl
g default
v -1.703270 30.089827 1.493364
v 1.703270 30.089827 1.493364
v -1.703270 33.496372 1.493364
v 1.703270 33.496372 1.493364
v -1.703270 33.496372 -1.493364
v 1.703270 33.496372 -1.493364
v -1.703270 30.089827 -1.493364
v 1.703270 30.089827 -1.493364
v -1.388713 30.404385 3.244957
v 1.388713 30.404385 3.244957
v 1.388713 33.181816 3.244957
v -1.388713 33.181816 3.244957
v -1.388713 33.181816 -3.244957
v 1.388713 33.181816 -3.244957
v 1.388713 30.404385 -3.244957
v -1.388713 30.404385 -3.244957
v -1.388713 30.404385 4.673905
v 1.388713 30.404385 4.673905
v 1.388713 33.181816 4.673905
v -1.388713 33.181816 4.673905
v -1.388713 33.181816 -4.673905
v 1.388713 33.181816 -4.673905
v 1.388713 30.404385 -4.673905
v -1.388713 30.404385 -4.673905
v -2.333038 29.460060 5.295135
v 2.333038 29.460060 5.295135
v 2.333038 34.126148 5.295135
v -2.333038 34.126148 5.295135
v -2.333038 34.126148 -5.295135
v 2.333038 34.126148 -5.295135
v 2.333038 29.460060 -5.295135
v -2.333038 29.460060 -5.295135
v -2.333040 29.460060 8.014655
v 2.333037 29.460060 8.014655
v 2.333037 34.126148 8.014655
v -2.333040 34.126148 8.014655
v -2.333037 34.126148 -8.014655
v 2.333040 34.126148 -8.014655
v 2.333040 29.460060 -8.014655
v -2.333037 29.460060 -8.014655
v -2.289982 31.793512 1.493364
v -2.289982 31.793512 -1.493364
v -1.867072 31.793436 -3.244957
v -1.867072 31.793436 -4.673905
v -3.136680 31.793669 -5.295135
v -3.136682 31.793669 -8.014655
v 3.136679 31.793669 -8.014655
v 3.136680 31.793669 -5.295135
v 1.867072 31.793436 -4.673905
v 1.867072 31.793436 -3.244957
v 2.289982 31.793512 -1.493364
v 2.289982 31.793512 1.493364
v 1.867072 31.793436 3.244957
v 1.867072 31.793436 4.673905
v 3.136680 31.793669 5.295135
v 3.136682 31.793669 8.014655
v -3.136679 31.793669 8.014655
v -3.136680 31.793669 5.295135
v -1.867072 31.793436 4.673905
v -1.867072 31.793436 3.244957
v 0.000000 29.648689 1.493364
v 0.000000 30.044716 3.244957
v 0.000000 30.044716 4.673905
v 0.000000 28.855816 5.295135
v -0.000001 28.855816 8.014656
v -0.000001 31.793814 8.014656
v -0.000001 34.730392 8.014656
v 0.000000 34.730392 5.295135
v 0.000000 33.541481 4.673905
v 0.000000 33.541481 3.244957
v 0.000000 33.937511 1.493364
v 0.000000 33.937511 -1.493364
v 0.000000 33.541481 -3.244957
v 0.000000 33.541481 -4.673905
v 0.000000 34.730392 -5.295135
v 0.000001 34.730392 -8.014656
v 0.000001 31.793814 -8.014656
v 0.000001 28.855816 -8.014656
v 0.000000 28.855816 -5.295135
v 0.000000 30.044716 -4.673905
v 0.000000 30.044716 -3.244957
v 0.000000 29.648689 -1.493364
v -1.930781 33.622978 -0.000018
v -2.595861 31.793543 -0.000018
v -1.930781 29.963224 -0.000018
v 1.930781 29.963224 -0.000018
v 2.595861 31.793543 -0.000018
v 1.930781 33.622978 -0.000018
v 0.000000 34.096901 -0.000018
v -1.582231 -0.056895 1.582231
v 1.582231 -0.056895 1.582231
v -1.582231 14.292398 1.582231
v 1.582231 14.292398 1.582231
v -1.582231 14.292398 -1.582231
v 1.582231 14.292398 -1.582231
v -1.582231 -0.056895 -1.582231
v 1.582231 -0.056895 -1.582231
v -1.052955 14.773863 1.052955
v 1.052955 14.773863 1.052955
v 1.052955 14.773863 -1.052955
v -1.052955 14.773863 -1.052955
v -1.167922 27.832108 1.167922
v 1.167922 27.832108 1.167922
v 1.167922 27.832108 -1.167922
v -1.167922 27.832108 -1.167922
v 0.000054 -0.056895 1.983230
v 0.000054 14.292398 1.983230
v 0.000036 14.773863 1.319815
v 0.000040 27.832108 1.463919
v 0.000040 27.832108 -1.463919
v 0.000036 14.773863 -1.319815
v 0.000054 14.292398 -1.983230
v 0.000054 -0.056895 -1.983230
v -2.019019 14.292398 -0.000111
v -2.019019 -0.056885 -0.000111
v 0.000069 -0.056885 -0.000139
v 2.019019 -0.056885 -0.000111
v 2.019019 14.292398 -0.000111
v 1.343633 14.773863 -0.000074
v 1.490339 27.832096 -0.000082
v -1.490339 27.832096 -0.000082
v -1.343633 14.773863 -0.000074
v -0.922592 27.398705 0.922592
v -1.177282 27.398689 -0.000065
v -0.922592 27.398705 -0.922592
v 0.000031 27.398697 -1.156412
v 0.922592 27.398705 -0.922592
v 1.177282 27.398693 -0.000065
v 0.922592 27.398705 0.922592
v 0.000031 27.398705 1.156412
vt 0.475995 0.927251
vt 0.499866 0.899393
vt 0.525388 0.936036
vt 0.486279 0.963360
vt 0.321875 0.695860
vt 0.680058 0.936110
vt 0.300067 0.722930
vt 0.300489 0.694168
vt 0.164938 0.690225
vt 0.124728 0.716283
vt 0.839627 0.831217
vt 0.159226 0.653452
vt 0.673738 0.855732
vt 0.699507 0.853619
vt 0.699964 0.881776
vt 0.676032 0.883160
vt 0.300888 0.667492
vt 0.301325 0.639334
vt 0.327087 0.641345
vt 0.324818 0.668804
vt 0.343276 0.620816
vt 0.637659 0.845133
vt 0.356451 0.651602
vt 0.648019 0.889485
vt 0.644378 0.866021
vt 0.656779 0.935009
vt 0.348488 0.698688
vt 0.352827 0.675086
vt 0.279061 0.695221
vt 0.279243 0.721156
vt 0.744967 0.933502
vt 0.252377 0.697235
vt 0.752121 0.887689
vt 0.723924 0.882312
vt 0.725316 0.854789
vt 0.754990 0.864100
vt 0.761068 0.843011
vt 0.740842 0.833743
vt 0.275499 0.640605
vt 0.245818 0.649950
vt 0.276925 0.668098
vt 0.248726 0.673522
vt 0.619719 0.845614
vt 0.379801 0.654907
vt 0.624850 0.894900
vt 0.621023 0.869331
vt 0.640841 0.941827
vt 0.369421 0.705469
vt 0.375978 0.680483
vt 0.761140 0.939800
vt 0.231269 0.703364
vt 0.775435 0.892339
vt 0.778435 0.866655
vt 0.779034 0.842911
vt 0.222361 0.652523
vt 0.225401 0.678204
vt 0.600939 0.836359
vt 0.401496 0.654689
vt 0.604633 0.899520
vt 0.599317 0.869095
vt 0.628433 0.958257
vt 0.388445 0.715109
vt 0.396129 0.685086
vt 0.774150 0.955804
vt 0.212024 0.712427
vt 0.795723 0.896292
vt 0.800111 0.865740
vt 0.797532 0.833076
vt 0.200664 0.651626
vt 0.205056 0.682190
vt 0.100316 0.678894
vt 0.135137 0.667179
vt 0.591165 0.977272
vt 0.426686 0.730391
vt 0.173524 0.726595
vt 0.149110 0.753683
vt 0.550898 0.972681
vt 0.841520 0.867539
vt 0.789009 0.926545
vt 0.516593 0.985454
vt 0.769685 0.917521
vt 0.748544 0.911417
vt 0.721852 0.909448
vt 0.700420 0.908450
vt 0.679033 0.910195
vt 0.652418 0.913067
vt 0.631503 0.919860
vt 0.612543 0.929519
vt 0.574488 0.944876
vt 0.331337 0.177158
vt 0.353971 0.170583
vt 0.647025 0.608961
vt 0.328332 0.391871
vt 0.281527 0.391064
vt 0.741418 0.606776
vt 0.562234 0.500003
vt 0.499998 0.500004
vt 0.499998 0.438869
vt 0.548771 0.451229
vt 0.666394 0.391602
vt 0.689376 0.392216
vt 0.693851 0.606118
vt 0.670426 0.606352
vt 0.304909 0.391792
vt 0.659205 0.620065
vt 0.322610 0.403797
vt 0.694272 0.617583
vt 0.676246 0.618283
vt 0.269455 0.404378
vt 0.286564 0.403229
vt 0.304615 0.403260
vt 0.331159 0.594640
vt 0.316607 0.596069
vt 0.698699 0.810515
vt 0.684032 0.810450
vt 0.287246 0.595650
vt 0.727877 0.807920
vt 0.301902 0.596227
vt 0.712291 0.617387
vt 0.713386 0.809847
vt 0.717224 0.605230
vt 0.437766 0.500003
vt 0.301810 0.604943
vt 0.318358 0.605057
vt 0.285291 0.604617
vt 0.269413 0.598316
vt 0.715429 0.818784
vt 0.698890 0.819230
vt 0.682370 0.819466
vt 0.666300 0.813700
vt 0.259948 0.619604
vt 0.731319 0.812423
vt 0.657532 0.835251
vt 0.334447 0.599229
vt 0.669642 0.809148
vt 0.272907 0.593848
vt 0.729246 0.618365
vt 0.451229 0.451229
vt 0.643733 0.385133
vt 0.263667 0.169065
vt 0.257335 0.392746
vt 0.339500 0.405420
vt 0.351743 0.394368
vt 0.700934 0.937207
vt 0.721753 0.935385
vt 0.239751 0.628857
vt 0.221776 0.628778
vt 0.203264 0.618955
vt 0.534316 0.886637
vt 0.564787 0.908767
vt 0.189140 0.759490
vt 0.226987 0.741656
vt 0.239897 0.725622
vt 0.256026 0.719309
vt 0.320933 0.721781
vt 0.344199 0.720647
vt 0.360162 0.727461
vt 0.372650 0.743875
vt 0.114436 0.765412
vt 0.442098 0.621452
vt 0.399965 0.621959
vt 0.381159 0.631195
vt 0.363196 0.630716
vt 0.084810 0.742414
vt 0.161154 0.617104
vt 0.075620 0.706019
vt 0.812118 0.973534
vt 0.442826 0.657817
vt 0.827722 0.940589
vt 0.835709 0.904234
vt 0.435839 0.694309
vt 0.410027 0.762817
vt 0.557959 0.872156
vt 0.558807 0.835759
vt 0.548771 0.548771
vt 0.308356 0.177880
vt 0.734027 0.383202
vt 0.499998 0.561131
vt 0.712305 0.390440
vt 0.285419 0.176212
vt 0.451229 0.548771
vn -0.000001 -0.000000 1.000000
vn -0.000000 -0.000000 1.000000
vn -0.000000 0.000000 1.000000
vn -0.000000 -0.000000 1.000000
vn -0.244053 0.956665 0.158842
vn 0.000000 0.986019 0.166633
vn 0.000000 1.000000 0.000000
vn -0.244180 0.969730 0.000000
vn -0.000000 -0.000000 -1.000000
vn 0.000000 0.000000 -1.000000
vn 0.000000 -0.000000 -1.000000
vn -0.000001 -0.000000 -1.000000
vn 0.924858 -0.323195 0.200458
vn 0.942613 -0.333886 -0.000000
vn 1.000000 0.000001 0.000000
vn 0.977306 0.000002 0.211831
vn -1.000000 0.000001 0.000000
vn -0.942613 -0.333886 0.000000
vn -0.924858 -0.323195 0.200458
vn -0.977306 0.000002 0.211832
vn -0.244924 -0.945673 0.213811
vn -0.000000 -0.975381 0.220528
vn -0.000000 -0.991351 0.131238
vn -0.248618 -0.959935 0.129286
vn 0.990050 -0.000003 0.140714
vn 0.936952 -0.322665 0.134198
vn -0.000000 0.991351 0.131239
vn -0.248616 0.959935 0.129288
vn -0.990050 -0.000003 0.140714
vn -0.936952 -0.322665 0.134198
vn -0.244053 0.956664 -0.158844
vn -0.000000 0.986019 -0.166635
vn -0.000000 0.991351 -0.131239
vn -0.248616 0.959935 -0.129288
vn 0.990050 -0.000003 -0.140714
vn 0.977306 0.000002 -0.211834
vn 0.924857 -0.323194 -0.200460
vn 0.936952 -0.322665 -0.134198
vn 0.000000 -0.991351 -0.131238
vn 0.000000 -0.975381 -0.220528
vn -0.244924 -0.945673 -0.213811
vn -0.248618 -0.959935 -0.129287
vn -0.924857 -0.323194 -0.200460
vn -0.977306 0.000002 -0.211834
vn -0.990050 -0.000003 -0.140714
vn -0.936952 -0.322665 -0.134198
vn 0.000000 -1.000000 0.000000
vn -0.250722 -0.968059 0.000000
vn 1.000000 0.000000 0.000000
vn 0.945504 -0.325611 0.000000
vn 0.000000 1.000000 0.000000
vn -0.250719 0.968060 0.000000
vn -1.000000 0.000000 0.000000
vn -0.945504 -0.325611 0.000000
vn 0.000000 1.000000 0.000000
vn -0.250719 0.968060 0.000000
vn 1.000000 0.000000 0.000000
vn 0.945504 -0.325611 0.000000
vn 0.000000 -1.000000 0.000000
vn -0.250722 -0.968059 0.000000
vn -1.000000 0.000000 0.000000
vn -0.945504 -0.325611 0.000000
vn -0.119090 -0.459818 -0.879992
vn -0.000000 -0.463113 -0.886299
vn -0.000000 -0.463113 -0.886299
vn -0.119090 -0.459818 -0.879992
vn 0.434586 -0.149662 -0.888108
vn 0.439514 -0.000008 -0.898236
vn 0.439514 0.000011 -0.898236
vn 0.434586 -0.149662 -0.888108
vn 0.000000 0.463111 -0.886301
vn 0.000000 0.463111 -0.886301
vn -0.119089 0.459815 -0.879993
vn -0.119089 0.459815 -0.879993
vn -0.439514 0.000011 -0.898236
vn -0.439514 -0.000008 -0.898236
vn -0.434586 -0.149662 -0.888108
vn -0.434586 -0.149662 -0.888108
vn -0.119089 0.459815 0.879993
vn -0.000000 0.463111 0.886301
vn -0.000000 0.463111 0.886301
vn -0.119089 0.459815 0.879993
vn 0.439514 0.000011 0.898236
vn 0.439514 -0.000008 0.898236
vn 0.434586 -0.149662 0.888108
vn 0.434586 -0.149662 0.888108
vn 0.000000 -0.463113 0.886299
vn 0.000000 -0.463113 0.886299
vn -0.119090 -0.459817 0.879992
vn -0.119090 -0.459817 0.879992
vn -0.434586 -0.149662 0.888108
vn -0.439514 -0.000008 0.898236
vn -0.439514 0.000011 0.898236
vn -0.434586 -0.149662 0.888108
vn -0.250722 -0.968059 -0.000000
vn 0.000000 -1.000000 -0.000000
vn -0.000000 -1.000000 -0.000000
vn -0.250722 -0.968059 -0.000000
vn 0.945504 -0.325611 -0.000000
vn 1.000000 0.000000 -0.000000
vn 1.000000 0.000000 -0.000000
vn 0.945504 -0.325611 -0.000000
vn -0.000000 1.000000 0.000000
vn 0.000000 1.000000 0.000000
vn -0.250722 0.968059 0.000001
vn -0.250722 0.968059 0.000001
vn -1.000000 0.000000 -0.000000
vn -1.000000 0.000000 -0.000000
vn -0.945504 -0.325610 -0.000000
vn -0.945504 -0.325610 -0.000000
vn -0.250722 0.968059 0.000000
vn -0.000000 1.000000 -0.000000
vn 0.000000 1.000000 -0.000000
vn -0.250722 0.968059 0.000000
vn 1.000000 0.000000 0.000000
vn 1.000000 0.000000 0.000000
vn 0.945504 -0.325610 0.000000
vn 0.945504 -0.325610 0.000000
vn 0.000000 -1.000000 0.000000
vn -0.000000 -1.000000 0.000000
vn -0.250722 -0.968059 0.000000
vn -0.250722 -0.968059 0.000000
vn -0.945504 -0.325611 0.000000
vn -1.000000 0.000000 0.000000
vn -1.000000 0.000000 0.000000
vn -0.945504 -0.325611 0.000000
vn -0.942563 0.334030 0.000000
vn -0.924807 0.323333 0.200468
vn -0.924807 0.323333 -0.200470
vn -0.936902 0.322804 -0.134207
vn -0.945456 0.325751 0.000000
vn -0.434538 0.149717 0.888123
vn -0.434538 0.149717 0.888123
vn -0.945455 0.325752 0.000000
vn -0.945455 0.325752 0.000000
vn -0.000000 0.000000 -1.000000
vn 0.000000 0.000000 -1.000000
vn 0.945456 0.325751 0.000000
vn 0.945456 0.325751 0.000000
vn 0.434538 0.149717 0.888123
vn 0.434538 0.149717 0.888123
vn 0.936902 0.322804 -0.134207
vn 0.945456 0.325751 0.000000
vn 0.924807 0.323333 -0.200470
vn 0.942563 0.334030 0.000000
vn 0.924807 0.323333 0.200468
vn 0.936902 0.322804 0.134207
vn 0.945456 0.325751 0.000000
vn 0.434538 0.149717 -0.888123
vn 0.434538 0.149717 -0.888123
vn 0.945455 0.325752 -0.000000
vn 0.945455 0.325752 -0.000000
vn 0.000000 0.000000 1.000000
vn -0.000000 0.000000 1.000000
vn -0.945456 0.325751 -0.000000
vn -0.945456 0.325751 -0.000000
vn -0.434538 0.149717 -0.888123
vn -0.434538 0.149717 -0.888123
vn -0.936902 0.322804 0.134207
vn -0.945456 0.325751 0.000000
vn 0.244924 -0.945673 0.213811
vn 0.248618 -0.959935 0.129287
vn 0.250722 -0.968059 0.000000
vn 0.119090 -0.459817 -0.879992
vn 0.119090 -0.459817 -0.879992
vn 0.250722 -0.968059 0.000000
vn 0.250722 -0.968059 0.000000
vn 0.000001 -0.000000 1.000000
vn 0.000000 -0.000000 1.000000
vn 0.000000 0.000000 1.000000
vn 0.250722 0.968059 -0.000000
vn 0.250722 0.968059 -0.000000
vn 0.119089 0.459815 -0.879993
vn 0.119089 0.459815 -0.879993
vn 0.248616 0.959935 0.129288
vn 0.250719 0.968060 0.000000
vn 0.244053 0.956665 0.158842
vn 0.244180 0.969730 0.000000
vn 0.244053 0.956664 -0.158844
vn 0.248616 0.959935 -0.129288
vn 0.250719 0.968060 0.000000
vn 0.119089 0.459815 0.879993
vn 0.119089 0.459815 0.879993
vn 0.250722 0.968059 -0.000001
vn 0.250722 0.968059 -0.000001
vn 0.000000 0.000000 -1.000000
vn 0.000000 -0.000000 -1.000000
vn 0.000001 -0.000000 -1.000000
vn 0.250722 -0.968059 0.000000
vn 0.250722 -0.968059 0.000000
vn 0.119090 -0.459818 0.879992
vn 0.119090 -0.459818 0.879992
vn 0.248618 -0.959935 -0.129286
vn 0.250722 -0.968059 0.000000
vn 0.244924 -0.945673 -0.213811
vn -0.245664 0.000000 0.969355
vn -0.000000 0.000000 1.000000
vn 0.000000 0.032777 0.999463
vn -0.245579 0.026215 0.969022
vn -0.245579 0.026215 -0.969022
vn 0.000000 0.032777 -0.999463
vn 0.000000 0.000000 -1.000000
vn -0.245664 0.000000 -0.969355
vn 0.000001 -1.000000 -0.000000
vn -0.000000 -1.000000 -0.000000
vn 0.000000 -1.000000 -0.000006
vn 0.000001 -1.000000 -0.000006
vn 0.963949 0.000000 0.266088
vn 1.000000 0.000000 0.000000
vn 0.999458 0.032935 -0.000000
vn 0.963599 0.026931 0.265991
vn -0.999458 0.032935 -0.000000
vn -1.000000 0.000000 -0.000000
vn -0.963949 0.000000 0.266088
vn -0.963599 0.026931 0.265991
vn -0.000001 0.809327 0.587358
vn -0.147233 0.800505 0.580960
vn 0.580476 0.814277 0.000003
vn 0.573170 0.804017 0.158218
vn -0.000001 0.809327 -0.587358
vn -0.147233 0.800505 -0.580960
vn -0.580476 0.814277 0.000003
vn -0.573170 0.804017 0.158218
vn -0.245645 0.012545 0.969279
vn 0.000000 0.012942 0.999916
vn -0.000000 -0.014539 0.999894
vn -0.245630 -0.016740 0.969219
vn 0.963871 0.012700 0.266067
vn 0.999913 0.013175 -0.000000
vn 0.999887 -0.015012 0.000000
vn 0.963813 -0.016772 0.266052
vn -0.245630 -0.016741 -0.969219
vn -0.000000 -0.014539 -0.999894
vn 0.000000 0.012942 -0.999916
vn -0.245645 0.012545 -0.969279
vn -0.963813 -0.016772 0.266052
vn -0.999887 -0.015012 0.000000
vn -0.999913 0.013175 -0.000000
vn -0.963871 0.012700 0.266067
vn 0.245680 0.000000 0.969351
vn 0.245595 0.026216 0.969018
vn 0.147241 0.800508 0.580953
vn 0.245645 -0.016740 0.969215
vn 0.245660 0.012545 0.969275
vn 0.245660 0.012545 -0.969275
vn 0.245645 -0.016740 -0.969215
vn 0.245595 0.026216 -0.969018
vn 0.147241 0.800508 -0.580953
vn 0.245680 0.000000 -0.969351
vn -0.000001 -1.000000 -0.000000
vn -0.000001 -1.000000 -0.000006
vn -0.963939 0.000000 -0.266122
vn -0.963590 0.026932 -0.266026
vn 0.000001 -1.000000 0.000006
vn 0.000000 -1.000000 0.000006
vn -0.000001 -1.000000 0.000006
vn 0.963939 0.000000 -0.266122
vn 0.963590 0.026932 -0.266026
vn 0.573157 0.804023 -0.158237
vn 0.963803 -0.016772 -0.266086
vn 0.963861 0.012700 -0.266102
vn -0.963861 0.012700 -0.266102
vn -0.963803 -0.016772 -0.266086
vn -0.573157 0.804023 -0.158237
vn -0.810641 -0.585544 -0.000003
vn -0.791080 -0.571405 0.218378
vn -0.791067 -0.571413 -0.218405
vn 0.000001 -0.578657 -0.815571
vn -0.202414 -0.566676 -0.798691
vn 0.202427 -0.566681 -0.798684
vn 0.810640 -0.585545 -0.000003
vn 0.791066 -0.571415 -0.218403
vn 0.791079 -0.571407 0.218376
vn 0.000001 -0.578659 0.815570
vn 0.202424 -0.566683 0.798683
vn -0.202411 -0.566678 0.798690
vn -0.117433 -0.101480 0.987882
vn -0.117433 -0.101480 0.987882
vn -0.117433 -0.101480 0.987882
vn -0.117433 -0.101480 0.987882
vn -0.951563 -0.226948 0.207420
vn -0.951563 -0.226948 0.207420
vn -0.951563 -0.226948 0.207420
vn -0.951563 -0.226948 0.207420
vn -0.951561 -0.226943 -0.207435
vn -0.951561 -0.226943 -0.207435
vn -0.951561 -0.226943 -0.207435
vn -0.951561 -0.226943 -0.207435
vn -0.117433 -0.101480 -0.987882
vn -0.117433 -0.101480 -0.987882
vn -0.117433 -0.101480 -0.987882
vn -0.117433 -0.101480 -0.987882
vn 0.117436 -0.101478 -0.987882
vn 0.117436 -0.101478 -0.987882
vn 0.117436 -0.101478 -0.987882
vn 0.117436 -0.101478 -0.987882
vn 0.951561 -0.226943 -0.207435
vn 0.951561 -0.226943 -0.207435
vn 0.951561 -0.226943 -0.207435
vn 0.951561 -0.226943 -0.207435
vn 0.951563 -0.226948 0.207420
vn 0.951563 -0.226948 0.207420
vn 0.951563 -0.226948 0.207420
vn 0.951563 -0.226948 0.207420
vn 0.117436 -0.101478 0.987882
vn 0.117436 -0.101478 0.987882
vn 0.117436 -0.101478 0.987882
vn 0.117436 -0.101478 0.987882
s 1
g HammerMesh
usemtl blinn2SG
f 33/1/1 65/2/2 66/3/3 57/4/4
s 2
f 3/5/5 71/155/6 89/7/7 83/8/8
s 3
f 46/9/9 77/10/10 78/71/11 40/72/12
s 4
f 2/13/13 86/14/14 87/15/15 52/16/16
s 5
f 84/17/17 85/18/18 1/19/19 41/20/20
s 6
f 1/19/21 61/21/22 62/163/23 9/23/24
s 4
f 2/13/13 52/16/16 53/24/25 10/25/26
s 2
f 70/156/27 71/155/6 3/5/5 12/27/28
s 5
f 60/28/29 41/20/20 1/19/19 9/23/30
s 2
f 5/29/31 72/30/32 73/154/33 13/32/34
s 4
f 50/33/35 51/34/36 8/35/37 15/36/38
s 8
f 81/146/39 82/131/40 7/39/41 16/40/42
s 5
f 7/39/43 42/41/44 43/42/45 16/40/46
s 6
f 9/23/24 62/163/23 63/162/47 17/44/48
s 4
f 10/25/26 53/24/25 54/45/49 18/46/50
s 2
f 69/157/51 70/156/27 12/27/28 20/48/52
s 5
f 59/49/53 60/28/29 9/23/30 17/44/54
s 2
f 13/32/34 73/154/33 74/153/55 21/51/56
s 4
f 49/52/57 50/33/35 15/36/38 23/53/58
s 8
f 80/147/59 81/146/39 16/40/42 24/55/60
s 5
f 16/40/46 43/42/45 44/56/61 24/55/62
s 9
f 17/44/63 63/162/64 64/161/65 25/58/66
s 10
f 18/46/67 54/45/68 55/59/69 26/60/70
s 11
f 68/158/71 69/157/72 20/48/73 28/62/74
s 12
f 58/63/75 59/49/76 17/44/77 25/58/78
s 13
f 21/51/79 74/153/80 75/152/81 29/65/82
s 14
f 48/66/83 49/52/84 23/53/85 31/67/86
s 15
f 79/148/87 80/147/88 24/55/89 32/69/90
s 16
f 24/55/91 44/56/92 45/70/93 32/69/94
s 17
f 25/58/95 64/161/96 65/160/97 33/168/98
s 18
f 26/60/99 55/59/100 56/150/101 34/173/102
s 19
f 67/172/103 68/158/104 28/62/105 36/74/106
s 20
f 57/171/107 58/63/108 25/58/109 33/168/110
s 21
f 29/65/111 75/152/112 76/151/113 37/75/114
s 22
f 47/170/115 48/66/116 31/67/117 39/78/118
s 23
f 78/165/119 79/148/120 32/69/121 40/12/122
s 24
f 32/69/123 45/70/124 46/9/125 40/12/126
s 5
f 83/8/127 84/17/17 41/20/20 3/5/128
f 43/42/45 42/41/44 5/29/129 13/32/130
f 44/56/61 43/42/45 13/32/130 21/51/131
s 16
f 45/70/93 44/56/92 21/51/132 29/65/133
s 24
f 46/9/125 45/70/124 29/65/134 37/75/135
s 3
f 37/75/136 76/76/137 77/10/10 46/9/9
s 22
f 30/79/138 48/66/116 47/170/115 38/169/139
s 14
f 22/81/140 49/52/84 48/66/83 30/79/141
s 4
f 14/82/142 50/33/35 49/52/57 22/81/143
f 6/83/144 51/34/36 50/33/35 14/82/142
f 52/16/16 87/15/15 88/84/145 4/85/146
f 53/24/25 52/16/16 4/85/146 11/86/147
f 54/45/49 53/24/25 11/86/147 19/87/148
s 10
f 55/59/69 54/45/68 19/87/149 27/88/150
s 18
f 56/150/101 55/59/100 27/88/151 35/89/152
s 1
f 57/4/4 66/3/3 67/77/153 36/80/154
s 20
f 28/62/155 58/63/108 57/171/107 36/74/156
s 12
f 20/48/157 59/49/76 58/63/75 28/62/158
s 5
f 12/27/159 60/28/29 59/49/53 20/48/160
f 3/5/128 41/20/20 60/28/29 12/27/159
s 6
f 62/22/23 61/133/22 2/13/161 10/25/162
f 63/43/47 62/22/23 10/25/162 18/46/163
s 9
f 64/57/65 63/43/64 18/46/164 26/60/165
s 17
f 65/174/97 64/57/96 26/60/166 34/173/167
s 1
f 66/3/3 65/2/2 34/149/168 56/150/169
f 67/77/153 66/3/3 56/150/169 35/89/170
s 19
f 27/88/171 68/61/104 67/73/103 35/89/172
s 11
f 19/87/173 69/47/72 68/61/71 27/88/174
s 2
f 11/86/175 70/26/27 69/47/51 19/87/176
f 4/85/177 71/6/6 70/26/27 11/86/175
f 88/84/178 89/144/7 71/6/6 4/85/177
f 73/31/33 72/145/32 6/83/179 14/82/180
f 74/50/55 73/31/33 14/82/180 22/81/181
s 13
f 75/64/81 74/50/80 22/81/182 30/79/183
s 21
f 76/167/113 75/64/112 30/79/184 38/169/185
s 3
f 77/10/10 76/76/137 38/159/186 47/164/187
f 78/71/11 77/10/10 47/164/187 39/166/188
s 23
f 31/67/189 79/68/120 78/11/119 39/78/190
s 15
f 23/53/191 80/54/88 79/68/87 31/67/192
s 8
f 15/36/193 81/37/39 80/54/59 23/53/194
f 8/35/195 82/38/40 81/37/39 15/36/193
s 5
f 42/41/44 84/17/17 83/8/127 5/29/129
f 7/39/43 85/18/18 84/17/17 42/41/44
s 4
f 87/15/15 86/14/14 8/35/37 51/34/36
f 88/84/145 87/15/15 51/34/36 6/83/144
s 2
f 72/145/32 89/144/7 88/84/178 6/83/179
f 83/8/8 89/7/7 72/30/32 5/29/31
s 25
usemtl lambert3SG
f 90/90/196 106/91/197 107/143/198 92/93/199
s 26
f 94/94/200 112/141/201 113/140/202 96/180/203
s 27
f 115/96/204 116/97/205 106/98/206 90/99/207
s 28
f 91/100/208 117/101/209 118/102/210 93/103/211
s 29
f 114/104/212 115/176/213 90/90/214 92/93/215
s 25
f 92/93/199 107/143/198 108/142/216 98/106/217
s 28
f 93/103/211 118/102/210 119/107/218 99/108/219
s 26
f 111/109/220 112/141/201 94/94/200 101/110/221
s 29
f 122/111/222 114/104/212 92/93/215 98/106/223
s 30
usemtl lambert4SG
f 98/106/224 108/142/225 130/112/226 123/113/227
s 31
f 99/108/228 119/107/229 128/114/230 129/115/231
s 32
f 125/116/232 126/136/233 111/109/234 101/110/235
s 33
f 123/113/236 124/118/237 122/111/238 98/106/239
s 25
usemtl lambert3SG
f 107/92/198 106/139/197 91/100/240 93/103/241
f 108/105/216 107/92/198 93/103/241 99/108/242
s 30
usemtl lambert4SG
f 129/115/243 130/135/226 108/105/225 99/108/244
s 32
f 100/119/245 111/137/234 126/117/233 127/120/246
s 26
usemtl lambert3SG
f 95/121/247 112/95/201 111/137/220 100/119/248
f 113/177/202 112/95/201 95/121/247 97/179/249
s 27
f 106/98/206 116/97/205 117/122/250 91/138/251
s 29
f 96/180/252 115/176/213 114/104/212 94/94/253
s 27
f 96/175/254 113/178/255 116/97/205 115/96/204
f 117/122/250 116/97/205 113/178/255 97/181/256
s 28
f 118/102/210 117/101/209 97/179/257 95/121/258
f 119/107/218 118/102/210 95/121/258 100/119/259
s 31
usemtl lambert4SG
f 127/120/260 128/114/230 119/107/229 100/119/261
s 33
f 101/110/262 122/111/238 124/118/237 125/116/263
s 29
usemtl lambert3SG
f 94/94/253 114/104/212 122/111/222 101/110/264
s 33
usemtl blinn2SG
f 121/123/265 124/118/237 123/113/236 102/124/266
f 125/116/263 124/118/237 121/123/265 105/125/267
s 32
f 110/126/268 126/136/233 125/116/232 105/125/269
f 127/120/246 126/117/233 110/132/268 104/127/270
s 31
f 120/128/271 128/114/230 127/120/260 104/127/272
f 129/115/231 128/114/230 120/128/271 103/129/273
s 30
f 109/130/274 130/135/226 129/115/243 103/129/275
f 123/113/227 130/112/226 109/134/274 102/124/276
s off
f 61/21/277 1/19/278 102/124/279 109/134/280
f 1/19/281 85/18/282 121/123/283 102/124/284
f 85/18/285 7/39/286 105/125/287 121/123/288
f 7/39/289 82/131/290 110/126/291 105/125/292
f 82/38/293 8/35/294 104/127/295 110/132/296
f 8/35/297 86/14/298 120/128/299 104/127/300
f 86/14/301 2/13/302 103/129/303 120/128/304
f 2/13/305 61/133/306 109/130/307 103/129/308
